HIERARCHY
ROOT Hips
{
    OFFSET   0.000000   0.000000   0.000000
    CHANNELS 6 Xposition Yposition Zposition Zrotation Xrotation Yrotation
    JOINT Chest
    {
        OFFSET   0.000000   8.007230   0.000000
        CHANNELS 3 Zrotation Xrotation Yrotation
        JOINT Chest2
        {
            OFFSET   0.000000  22.077100   0.000000
            CHANNELS 3 Zrotation Xrotation Yrotation
            JOINT Neck
            {
                OFFSET   0.000000  23.254800  -0.000021
                CHANNELS 3 Zrotation Xrotation Yrotation
                JOINT Head
                {
                    OFFSET   0.000000  14.370000   1.956610
                    CHANNELS 3 Zrotation Xrotation Yrotation
                    End Site
                    {
                        OFFSET   0.000000  19.566000   0.000000
                    }
                }
            }
            JOINT LeftCollar
            {
                OFFSET   3.911900  19.017000  -0.467063
                CHANNELS 3 Zrotation Xrotation Yrotation
                JOINT LeftShoulder
                {
                    OFFSET  10.383700   0.000000   0.000000
                    CHANNELS 3 Zrotation Xrotation Yrotation
                    JOINT LeftElbow
                    {
                        OFFSET  26.662100   0.001529   0.000325
                        CHANNELS 3 Zrotation Xrotation Yrotation
                        JOINT LeftWrist
                        {
                            OFFSET  28.869000  -0.000011  -0.000096
                            CHANNELS 3 Zrotation Xrotation Yrotation
                            JOINT LeftFinger0
                            {
                                OFFSET   2.044650  -2.323460   3.252850
                                CHANNELS 3 Zrotation Xrotation Yrotation
                                JOINT LeftFinger01
                                {
                                    OFFSET   3.088130   0.000000   0.000000
                                    CHANNELS 3 Zrotation Xrotation Yrotation
                                    JOINT LeftFinger02
                                    {
                                        OFFSET   2.639460   0.000000   0.000000
                                        CHANNELS 3 Zrotation Xrotation Yrotation
                                        End Site
                                        {
                                            OFFSET   2.582190   0.000000   0.000000
                                        }
                                    }
                                }
                            }
                            JOINT LeftFinger1
                            {
                                OFFSET   8.364480   0.000000   3.252850
                                CHANNELS 3 Zrotation Xrotation Yrotation
                                JOINT LeftFinger11
                                {
                                    OFFSET   4.646930   0.000000   0.000000
                                    CHANNELS 3 Zrotation Xrotation Yrotation
                                    JOINT LeftFinger12
                                    {
                                        OFFSET   2.323460   0.000000   0.000000
                                        CHANNELS 3 Zrotation Xrotation Yrotation
                                        End Site
                                        {
                                            OFFSET   2.273050   0.000000   0.000000
                                        }
                                    }
                                }
                            }
                            JOINT LeftFinger2
                            {
                                OFFSET   8.364480   0.000016   1.078090
                                CHANNELS 3 Zrotation Xrotation Yrotation
                                JOINT LeftFinger21
                                {
                                    OFFSET   5.111620   0.000000   0.000000
                                    CHANNELS 3 Zrotation Xrotation Yrotation
                                    JOINT LeftFinger22
                                    {
                                        OFFSET   2.788160   0.000017   0.000000
                                        CHANNELS 3 Zrotation Xrotation Yrotation
                                        End Site
                                        {
                                            OFFSET   2.727660   0.000000   0.000000
                                        }
                                    }
                                }
                            }
                            JOINT LeftFinger3
                            {
                                OFFSET   7.899780   0.000015  -1.078090
                                CHANNELS 3 Zrotation Xrotation Yrotation
                                JOINT LeftFinger31
                                {
                                    OFFSET   4.646920   0.000000   0.000000
                                    CHANNELS 3 Zrotation Xrotation Yrotation
                                    JOINT LeftFinger32
                                    {
                                        OFFSET   2.323470   0.000000   0.000000
                                        CHANNELS 3 Zrotation Xrotation Yrotation
                                        End Site
                                        {
                                            OFFSET   2.273050   0.000000   0.000000
                                        }
                                    }
                                }
                            }
                            JOINT LeftFinger4
                            {
                                OFFSET   7.435090   0.000000  -3.252850
                                CHANNELS 3 Zrotation Xrotation Yrotation
                                JOINT LeftFinger41
                                {
                                    OFFSET   3.717550   0.000000   0.000000
                                    CHANNELS 3 Zrotation Xrotation Yrotation
                                    JOINT LeftFinger42
                                    {
                                        OFFSET   1.858760   0.000000   0.000000
                                        CHANNELS 3 Zrotation Xrotation Yrotation
                                        End Site
                                        {
                                            OFFSET   1.818440   0.000000   0.000000
                                        }
                                    }
                                }
                            }
                        }
                    }
                }
            }
            JOINT RightCollar
            {
                OFFSET  -3.911900  19.017000  -0.467062
                CHANNELS 3 Zrotation Xrotation Yrotation
                JOINT RightShoulder
                {
                    OFFSET -10.383700   0.000015   0.000000
                    CHANNELS 3 Zrotation Xrotation Yrotation
                    JOINT RightElbow
                    {
                        OFFSET -26.662100   0.001341   0.000385
                        CHANNELS 3 Zrotation Xrotation Yrotation
                        JOINT RightWrist
                        {
                            OFFSET -28.869000   0.000025  -0.000080
                            CHANNELS 3 Zrotation Xrotation Yrotation
                            JOINT RightFinger0
                            {
                                OFFSET  -2.044650  -2.323490   3.252850
                                CHANNELS 3 Zrotation Xrotation Yrotation
                                JOINT RightFinger01
                                {
                                    OFFSET  -3.088130   0.000000   0.000000
                                    CHANNELS 3 Zrotation Xrotation Yrotation
                                    JOINT RightFinger02
                                    {
                                        OFFSET  -2.639460   0.000000   0.000000
                                        CHANNELS 3 Zrotation Xrotation Yrotation
                                        End Site
                                        {
                                            OFFSET  -2.582190   0.000000   0.000000
                                        }
                                    }
                                }
                            }
                            JOINT RightFinger1
                            {
                                OFFSET  -8.364480   0.000000   3.252850
                                CHANNELS 3 Zrotation Xrotation Yrotation
                                JOINT RightFinger11
                                {
                                    OFFSET  -4.646930   0.000000   0.000000
                                    CHANNELS 3 Zrotation Xrotation Yrotation
                                    JOINT RightFinger12
                                    {
                                        OFFSET  -2.323470   0.000000   0.000000
                                        CHANNELS 3 Zrotation Xrotation Yrotation
                                        End Site
                                        {
                                            OFFSET  -2.273050   0.000000   0.000000
                                        }
                                    }
                                }
                            }
                            JOINT RightFinger2
                            {
                                OFFSET  -8.364480   0.000000   1.078090
                                CHANNELS 3 Zrotation Xrotation Yrotation
                                JOINT RightFinger21
                                {
                                    OFFSET  -5.111610   0.000000   0.000000
                                    CHANNELS 3 Zrotation Xrotation Yrotation
                                    JOINT RightFinger22
                                    {
                                        OFFSET  -2.788160   0.000000   0.000000
                                        CHANNELS 3 Zrotation Xrotation Yrotation
                                        End Site
                                        {
                                            OFFSET  -2.727660   0.000000   0.000000
                                        }
                                    }
                                }
                            }
                            JOINT RightFinger3
                            {
                                OFFSET  -7.899780   0.000000  -1.078090
                                CHANNELS 3 Zrotation Xrotation Yrotation
                                JOINT RightFinger31
                                {
                                    OFFSET  -4.646920   0.000000   0.000000
                                    CHANNELS 3 Zrotation Xrotation Yrotation
                                    JOINT RightFinger32
                                    {
                                        OFFSET  -2.323470   0.000000   0.000000
                                        CHANNELS 3 Zrotation Xrotation Yrotation
                                        End Site
                                        {
                                            OFFSET  -2.273050   0.000000   0.000000
                                        }
                                    }
                                }
                            }
                            JOINT RightFinger4
                            {
                                OFFSET  -7.435090   0.000000  -3.252850
                                CHANNELS 3 Zrotation Xrotation Yrotation
                                JOINT RightFinger41
                                {
                                    OFFSET  -3.717550   0.000000   0.000000
                                    CHANNELS 3 Zrotation Xrotation Yrotation
                                    JOINT RightFinger42
                                    {
                                        OFFSET  -1.858770   0.000000   0.000000
                                        CHANNELS 3 Zrotation Xrotation Yrotation
                                        End Site
                                        {
                                            OFFSET  -1.818440   0.000000   0.000000
                                        }
                                    }
                                }
                            }
                        }
                    }
                }
            }
        }
    }
    JOINT LeftHip
    {
        OFFSET   9.783010   0.000000   0.000000
        CHANNELS 3 Zrotation Xrotation Yrotation
        JOINT LeftKnee
        {
            OFFSET   0.000070 -41.789100   0.000028
            CHANNELS 3 Zrotation Xrotation Yrotation
            JOINT LeftAnkle
            {
                OFFSET   0.000087 -41.133200  -0.000100
                CHANNELS 3 Zrotation Xrotation Yrotation
                JOINT LeftToe
                {
                    OFFSET   0.000000  -6.358960  14.674500
                    CHANNELS 3 Zrotation Xrotation Yrotation
                    End Site
                    {
                        OFFSET   0.000000   0.000000   3.913200
                    }
                }
            }
        }
    }
    JOINT RightHip
    {
        OFFSET  -9.783020   0.000000   0.000000
        CHANNELS 3 Zrotation Xrotation Yrotation
        JOINT RightKnee
        {
            OFFSET   0.000044 -41.789100  -0.000870
            CHANNELS 3 Zrotation Xrotation Yrotation
            JOINT RightAnkle
            {
                OFFSET  -0.000090 -41.133200  -0.000245
                CHANNELS 3 Zrotation Xrotation Yrotation
                JOINT RightToe
                {
                    OFFSET   0.000000  -6.358960  14.674500
                    CHANNELS 3 Zrotation Xrotation Yrotation
                    End Site
                    {
                        OFFSET   0.000000   0.000000   3.913200
                    }
                }
            }
        }
    }
}
MOTION
Frames: 4
Frame Time:   0.016667
 -8.301420  88.072500  -3.575160  -4.277950 -24.103200 -14.777900   4.614360  12.444800  -5.934610  10.938900  24.275900 -13.370600  -1.176420  -1.520640  -0.029447  -1.936210  -3.079460  13.217600  -3.299420   7.050270  11.647900 -78.910700  -8.869170 -29.579500  23.230000 -19.889100 -93.087900  56.761300   9.739090 -46.567900  46.766000  31.935500 -58.130500 -19.501400  -0.000153  -0.000000  -4.750680   0.001917  -0.002945 -11.873400   0.770917  -3.661260  -9.734230  -0.000413  -0.000345  -6.813960  -0.006764  -0.000261 -16.798000  -0.511766   1.694090 -16.804900  -0.000342  -0.000486 -11.192100  -0.007800  -0.000382 -10.682300  -0.619685   3.279500 -10.699300  -0.000470  -0.000421  -7.125710  -0.000277  -0.000312 -10.878500  -1.187360   6.152840 -16.412200  -0.000564  -0.000605 -10.930600  -0.000220  -0.000485  -2.132530   2.642610   8.118380  48.299600  18.877400  64.180200 -23.421600   3.122910  77.440600 -75.485500  16.920100  46.402600 -56.738100  42.053600  83.225800   2.759970  -0.011965  -0.007217  -3.620010  -0.007705  -0.000000  11.024400   0.098670   0.505398   9.020260   0.001016  -0.004855   6.314190  -0.000543  -0.003803  10.774200  -0.954439  -5.003070  10.815900   0.006766  -0.007144   7.203370  -0.001251  -0.006370  10.592700  -1.639050  -8.698120  10.717400   0.004357  -0.006464   7.137780   0.003318  -0.006060  11.088100  -2.144130 -10.815000  16.936700   0.006520  -0.002504  11.279900  -0.001825  -0.003021   4.960420  17.206800   2.084400   1.040800  20.384100  11.087900  -7.713120 -11.516600   1.011450  -0.000000   0.000000   0.000000   2.437180  14.113300  -6.574460  -6.459680  20.211100  -2.818100   6.076630 -13.493100   9.974530  -0.000000   0.000000  -0.000000
 -8.303070  88.059700  -3.527740  -4.284560 -24.103600 -14.851600   4.622260  12.426000  -5.916900  10.948100  24.239300 -13.333500  -1.190210  -1.480060  -0.029767  -1.949830  -2.997130  13.367700  -3.266950   6.966350  11.608700 -78.694500  -8.660550 -29.423000  23.269300 -20.082500 -92.823800  56.858200   9.955890 -46.671100  46.615100  31.887800 -57.834300 -19.668300  -0.000169   0.000000  -4.834130   0.001914  -0.002985 -11.929900   0.730447  -3.453050  -9.778430  -0.000401  -0.000336  -6.844890  -0.006788  -0.000244 -16.795200  -0.567518   1.878090 -16.805200  -0.000317  -0.000466 -11.192300  -0.007828  -0.000356 -10.683000  -0.657285   3.473190 -10.703500  -0.000447  -0.000378  -7.128510  -0.000263  -0.000296 -10.877800  -1.228140   6.360770 -16.421600  -0.000544  -0.000564 -10.936800  -0.000206  -0.000455  -2.089510   2.590520   8.139670  48.296100  18.923200  64.177800 -23.436700   3.175890  77.405200 -75.631400  16.890900  46.441600 -56.620300  42.048000  83.224200   2.767340  -0.012121  -0.007243  -3.616330  -0.007805  -0.000039  11.092900   0.095128   0.485004   9.076280   0.001018  -0.004908   6.353390  -0.000531  -0.003850  10.875700  -0.970096  -5.025380  10.918300   0.006767  -0.007200   7.271620  -0.001248  -0.006390  10.718800  -1.665210  -8.727680  10.845900   0.004487  -0.006485   7.223360   0.003390  -0.006077  11.304700  -2.195060 -10.847600  17.269500   0.006528  -0.002496  11.501500  -0.001841  -0.002964   4.962910  17.223700   2.075710   0.984464  20.455800  11.154700  -7.730520 -11.586100   1.011460  -0.000000   0.000000   0.000000   2.410690  14.092900  -6.570060  -6.487390  20.306300  -2.788060   6.150610 -13.612800  10.035100  -0.000000   0.000000   0.000000
 -8.307420  88.046800  -3.484060  -4.290570 -24.114400 -14.888500   4.627770  12.409300  -5.898570  10.951800  24.207700 -13.292800  -1.193300  -1.437730  -0.030089  -1.963670  -2.911440  13.495400  -3.239300   6.876020  11.574500 -78.427100  -8.418380 -29.365000  23.341800 -20.230100 -92.335300  56.854200  10.236100 -46.733200  46.542600  31.851100 -57.526200 -19.812700  -0.000184  -0.000000  -4.906360   0.001908  -0.003025 -11.993300   0.679959  -3.204160  -9.827910  -0.000389  -0.000323  -6.879530  -0.006811  -0.000228 -16.796200  -0.624588   2.065560 -16.807000  -0.000293  -0.000443 -11.193400  -0.007852  -0.000331 -10.690100  -0.698058   3.686790 -10.712000  -0.000423  -0.000336  -7.134200  -0.000249  -0.000274 -10.881700  -1.270090   6.571370 -16.431000  -0.000522  -0.000527 -10.943000  -0.000197  -0.000423  -2.053570   2.540220   8.179710  48.278800  18.941500  64.182600 -23.429900   3.212040  77.304800 -75.711800  16.880700  46.458800 -56.439200  42.010800  83.212300   2.818930  -0.012274  -0.007267  -3.590550  -0.007904  -0.000079  11.215900   0.088536   0.447193   9.176850   0.001021  -0.004959   6.423780  -0.000521  -0.003894  11.026600  -0.986189  -5.047690  11.070100   0.006767  -0.007255   7.372710  -0.001246  -0.006411  10.916800  -1.710470  -8.795170  11.048200   0.004614  -0.006506   7.358130   0.003463  -0.006091  11.635700  -2.285250 -10.954100  17.781700   0.006536  -0.002487  11.842600  -0.001860  -0.002903   4.971410  17.233400   2.057770   0.936098  20.545300  11.209200  -7.748890 -11.656500   1.010040  -0.000000   0.000000  -0.000000   2.386430  14.083000  -6.568680  -6.499210  20.399100  -2.775260   6.220030 -13.723400  10.086100  -0.000000   0.000000   0.000000
 -8.314340  88.034300  -3.445690  -4.299620 -24.130000 -14.886600   4.633670  12.393800  -5.890380  10.959900  24.177100 -13.274300  -1.182310  -1.411300  -0.030399  -1.947900  -2.857760  13.614800  -3.220220   6.785840  11.566300 -78.200000  -8.225760 -29.371400  23.390200 -20.275100 -91.874000  56.798400  10.573700 -46.715700  46.511400  31.910700 -57.376000 -19.928600  -0.000195   0.000000  -4.964330   0.001880  -0.002986 -12.063000   0.653392  -3.047290  -9.883890  -0.000374  -0.000289  -6.918710  -0.006822  -0.000212 -16.837900  -0.652455   2.153330 -16.849000  -0.000279  -0.000397 -11.221400  -0.007869  -0.000304 -10.752200  -0.724823   3.808170 -10.774800  -0.000396  -0.000313  -7.176040  -0.000234  -0.000243 -10.944600  -1.296880   6.672700 -16.526000  -0.000494  -0.000503 -11.006200  -0.000202  -0.000386  -2.027770   2.510260   8.234980  48.262400  18.944100  64.190000 -23.408800   3.222340  77.142900 -75.669300  16.996800  46.375400 -56.042500  41.869600  83.021400   3.216110  -0.012433  -0.007285  -3.391960  -0.008013  -0.000129  11.365300   0.079882   0.397921   9.299030   0.001026  -0.005001   6.509330  -0.000511  -0.003917  11.121500  -0.986725  -5.030580  11.165000   0.006774  -0.007303   7.435880  -0.001256  -0.006418  11.077900  -1.760750  -8.917360  11.215100   0.004728  -0.006539   7.469300   0.003542  -0.006096  11.877300  -2.391390 -11.198400  18.166600   0.006534  -0.002471  12.098900  -0.001879  -0.002842   4.994030  17.221300   2.016010   0.897100  20.663800  11.256300  -7.757380 -11.724300   0.998361  -0.000000   0.000000  -0.000000   2.367380  14.090100  -6.568070  -6.488300  20.479200  -2.783990   6.277980 -13.811900  10.110800   0.000000   0.000000   0.000000
